<?xml version="1.0" standalone="no"?>
<!DOCTYPE svg PUBLIC "-//W3C//DTD SVG 20010904//EN"
 "http://www.w3.org/TR/2001/REC-SVG-20010904/DTD/svg10.dtd">
<svg version="1.0" xmlns="http://www.w3.org/2000/svg"
 width="600.000000pt" height="600.000000pt" viewBox="0 0 600.000000 600.000000"
 preserveAspectRatio="xMidYMid meet">

<g transform="translate(0.000000,600.000000) scale(0.100000,-0.100000)"
fill="#000000" stroke="none">
<path d="M5149 4651 c-177 -75 -538 -347 -761 -574 l-107 -108 -76 11 c-149
23 -308 -27 -408 -126 -47 -47 -97 -132 -97 -165 0 -11 -11 -19 -32 -23 -28
-5 -36 -2 -55 23 -32 41 -71 47 -128 22 -53 -23 -160 -122 -247 -229 l-60 -73
6 -97 c4 -53 9 -127 12 -164 l6 -68 42 0 c37 0 46 -5 79 -44 20 -25 55 -55 77
-67 80 -45 124 -135 220 -451 34 -111 67 -210 72 -218 8 -13 9 -12 4 2 -2 9
-30 108 -62 219 -96 346 -132 420 -235 485 -46 28 -87 82 -67 88 103 30 174
80 220 154 l22 36 22 -130 c55 -331 122 -477 249 -541 107 -55 242 -158 565
-433 167 -142 295 -247 375 -309 37 -28 -4 11 -100 96 -49 44 -178 163 -287
265 -243 230 -385 352 -467 403 -103 65 -136 99 -165 170 -33 83 -61 224 -81
405 -8 80 -18 169 -21 198 -3 28 -2 52 3 52 19 -1 30 -19 47 -80 67 -247 274
-424 567 -484 57 -11 65 -16 73 -42 29 -95 63 -142 127 -175 l38 -19 -26 50
c-24 46 -25 52 -12 85 8 20 28 45 44 55 30 18 30 18 85 -8 125 -61 189 -165
176 -286 l-6 -61 20 25 c98 124 111 309 32 480 -12 25 -30 105 -42 179 -25
154 -57 273 -105 384 -23 54 -30 79 -22 82 39 13 244 27 537 35 184 6 367 15
405 20 107 16 179 56 249 139 33 39 64 78 69 88 5 10 -4 2 -19 -17 -15 -19
-53 -60 -85 -91 -97 -95 -77 -92 -654 -100 -275 -4 -512 -10 -526 -14 -21 -5
-29 -2 -44 22 -33 51 -127 142 -179 175 -28 17 -53 33 -55 35 -10 7 126 158
239 264 218 205 396 344 531 417 50 26 72 32 123 32 35 0 85 -7 111 -15 64
-19 70 -12 8 9 -77 27 -170 30 -224 7z m-973 -762 c170 -31 332 -165 426 -354
49 -96 40 -99 -34 -9 -136 163 -253 248 -393 285 -137 35 -269 6 -359 -79
l-38 -37 20 41 c37 74 125 134 225 153 60 12 86 12 153 0z"/>
<path d="M2131 4236 c-21 -25 -30 -75 -56 -310 -25 -220 -52 -406 -61 -415 -2
-2 -33 10 -68 28 -138 68 -343 92 -481 56 -112 -30 -245 -111 -304 -186 l-20
-26 82 -41 c45 -23 88 -42 94 -42 7 0 45 21 85 47 110 71 205 105 314 111 57
3 112 0 145 -8 62 -15 172 -67 209 -100 l25 -22 -36 21 c-64 37 -168 71 -238
77 -123 12 -270 -35 -402 -128 l-59 -41 63 -64 c36 -35 83 -91 107 -126 30
-45 33 -51 9 -22 -51 63 -154 162 -191 185 -27 16 -50 20 -133 20 -175 0 -293
-43 -404 -145 -33 -31 -78 -84 -101 -117 l-40 -60 58 -42 c67 -49 128 -117
184 -201 33 -50 34 -53 7 -20 -64 80 -176 181 -230 209 l-55 29 -54 -29 c-138
-75 -335 -329 -391 -502 -10 -31 -18 -48 -18 -36 -1 11 8 50 20 85 56 174 214
397 342 482 41 28 39 29 -34 41 -116 20 -322 -251 -423 -556 -35 -104 -64
-234 -54 -243 2 -3 29 -10 59 -15 260 -48 673 -64 919 -36 469 55 885 217
1143 446 31 29 57 49 57 46 0 -12 -83 -233 -101 -268 -11 -21 -17 -38 -14 -38
9 0 53 95 106 227 28 70 66 153 85 184 19 30 39 71 44 90 5 19 33 61 60 94 49
58 111 171 125 228 4 15 11 27 16 27 4 0 10 19 12 43 2 23 2 -1 0 -53 -10
-238 -39 -458 -74 -565 -27 -80 -55 -120 -105 -150 -86 -51 -127 -142 -209
-470 -35 -137 -68 -261 -73 -275 -6 -14 -17 -42 -26 -62 -9 -21 -14 -38 -11
-38 14 0 71 151 136 357 101 323 135 392 216 440 115 67 174 211 223 544 11
79 23 158 25 174 l5 31 93 -12 c51 -6 146 -15 210 -19 134 -8 119 7 137 -140
36 -302 100 -500 200 -626 77 -95 105 -167 181 -466 33 -129 70 -263 83 -297
26 -70 64 -146 71 -146 3 0 -2 14 -11 32 -34 66 -57 152 -110 417 -58 293 -86
390 -131 453 -94 133 -120 195 -152 364 -30 151 -40 263 -56 626 -8 183 -19
348 -25 367 -14 49 -47 81 -85 81 -66 0 -105 -60 -181 -275 -23 -67 -45 -113
-48 -105 -3 8 -17 51 -31 96 -43 139 -92 188 -159 160 -18 -8 -39 -22 -45 -33
-10 -15 -11 -12 -5 17 21 109 94 144 159 76 24 -26 42 -64 67 -143 l35 -108
32 100 c50 151 106 262 144 285 42 26 59 25 96 -5 35 -30 47 -77 58 -234 l8
-105 98 111 c54 62 121 132 150 157 l52 45 -60 61 c-62 63 -159 120 -204 120
-42 0 -49 11 -61 100 -15 108 -31 147 -65 156 -49 12 -101 -63 -160 -227 -19
-55 -33 -80 -50 -87 -23 -10 -25 -7 -59 81 -72 184 -129 262 -175 238 -33 -18
-41 -44 -52 -164 -6 -61 -13 -136 -15 -165 l-6 -53 -81 107 c-95 125 -228 269
-268 290 -36 18 -73 18 -88 0z m126 -119 c72 -76 150 -175 247 -314 l57 -82
-138 -138 c-77 -76 -157 -166 -178 -200 -22 -35 -43 -62 -46 -60 -4 1 -39 37
-78 79 l-72 77 10 38 c19 69 40 194 66 388 33 248 40 285 54 285 5 0 40 -33
78 -73z m438 -28 c29 -56 85 -204 85 -222 0 -12 -149 -111 -156 -104 -4 4 24
310 32 350 3 15 7 27 10 27 2 0 15 -23 29 -51z m394 -30 c16 -97 18 -93 -44
-105 -30 -5 -55 -7 -55 -3 0 33 71 192 81 182 4 -5 12 -38 18 -74z m-713 -892
l102 -32 -22 -61 c-24 -65 -61 -131 -99 -177 l-23 -28 -12 100 c-6 54 -22 129
-36 165 -13 36 -21 66 -17 66 3 0 52 -15 107 -33z"/>
<path d="M880 3344 c-63 -23 -169 -95 -219 -149 -49 -53 -144 -196 -136 -204
7 -6 98 -42 100 -38 1 1 20 32 44 69 58 91 153 178 243 222 69 34 190 65 261
67 29 0 26 3 -23 21 -76 27 -211 34 -270 12z"/>
</g>
</svg>
